<svg xmlns="http://www.w3.org/2000/svg" version="1.1" xmlns:xlink="http://www.w3.org/1999/xlink" width="512" height="512" x="0" y="0" viewBox="0 0 32 32" style="enable-background:new 0 0 512 512" xml:space="preserve" fill-rule="evenodd" class=""><g><path fill="#2b2d42" d="M16 1C7.721 1 1 7.721 1 16s6.721 15 15 15a.991.991 0 0 0 .498-.133l.022-.013.009-.005a.982.982 0 0 0 .093-.066l.005-.004A.999.999 0 0 0 16 29c-.653 0-1.264-.308-1.831-.818-1.338-1.203-2.401-3.411-3.032-6.182H17a1 1 0 0 0 0-2h-6.228c-.177-1.263-.272-2.607-.272-4s.097-2.737.277-4h10.444c.096.668.168 1.358.215 2.066.037.551.514.968 1.064.932.551-.037.968-.514.932-1.064A29.302 29.302 0 0 0 23.239 12h5.133c.408 1.26.628 2.604.628 4 0 1.395-.22 2.74-.628 4H27.5a1 1 0 0 0 0 2h.034c-.124.236-.254.468-.391.695a1 1 0 0 0 1.714 1.032A14.924 14.924 0 0 0 31 16c0-8.279-6.721-15-15-15zM9.115 22H4.466a13.053 13.053 0 0 0 7.129 6.233c-1.067-1.546-1.937-3.702-2.48-6.233zm-.353-10H3.628C3.22 13.26 3 14.604 3 16s.22 2.74.628 4h5.138c-.173-1.272-.266-2.613-.266-4s.092-2.729.262-4zm2.819-8.228A13.053 13.053 0 0 0 4.466 10h4.641c.494-2.33 1.264-4.337 2.21-5.832.087-.136.174-.268.264-.396zM16 3c-1.142 0-2.136.885-2.993 2.238-.786 1.241-1.424 2.873-1.859 4.762h9.703c-.482-2.096-1.212-3.875-2.118-5.15C17.934 3.725 17.025 3 16 3zm4.42.772c1.067 1.533 1.935 3.689 2.474 6.228h4.64a13.062 13.062 0 0 0-7.114-6.228z" opacity="1" data-original="#2b2d42" class=""></path><path fill="#ee243a" d="m19.317 14.631-6.028 12.055a3.002 3.002 0 0 0 2.683 4.342h12.056a3 3 0 0 0 2.683-4.342l-6.028-12.055a3 3 0 0 0-5.366 0zm1.789.894a.998.998 0 0 1 1.788 0l6.028 12.056a1 1 0 0 1-.894 1.447H15.972a1 1 0 0 1-.894-1.447zM22 26a1 1 0 1 1 0 2 1 1 0 0 1 0-2zm-1-7v5a1 1 0 0 0 2 0v-5a1 1 0 0 0-2 0z" opacity="1" data-original="#ee243a" class=""></path></g></svg>