<svg xmlns="http://www.w3.org/2000/svg" version="1.1" xmlns:xlink="http://www.w3.org/1999/xlink" width="512" height="512" x="0" y="0" viewBox="0 0 64 64" style="enable-background:new 0 0 512 512" xml:space="preserve" class=""><g><path fill="#3d4652" d="M4.776 14.942h36.392a2.93 2.93 0 0 0 2.93-2.93v-8.77a2.93 2.93 0 0 0-2.93-2.93H4.776a2.93 2.93 0 0 0-2.93 2.93v8.77a2.93 2.93 0 0 0 2.93 2.93zm33.908-9.217a1.902 1.902 0 1 1 0 3.804 1.902 1.902 0 0 1 0-3.804zm-6.506 0a1.902 1.902 0 1 1 0 3.804 1.902 1.902 0 0 1 0-3.804zM21.493 4.698h2.956a2.93 2.93 0 0 1 0 5.86h-2.956a2.93 2.93 0 0 1 0-5.86zm-7.728 1.027a1.902 1.902 0 1 1 0 3.804 1.902 1.902 0 0 1 0-3.804zm-6.506 0a1.902 1.902 0 1 1 0 3.804 1.902 1.902 0 0 1 0-3.804z" opacity="1" data-original="#3d4652" class=""></path><path fill="#2d7abe" d="M45.279 29.935c-9.306 0-16.876 7.571-16.876 16.875 0 9.306 7.571 16.876 16.876 16.876s16.875-7.571 16.875-16.876c0-9.304-7.571-16.875-16.875-16.875zm0 29.226c-6.811 0-12.351-5.54-12.351-12.351 0-6.81 5.54-12.35 12.351-12.35 6.81 0 12.35 5.54 12.35 12.35 0 6.811-5.541 12.351-12.35 12.351z" opacity="1" data-original="#2d7abe" class=""></path><path fill="#3d4652" d="M4.776 34.152h23.942a20.963 20.963 0 0 1 8.261-6.486 1.888 1.888 0 0 1-.197-.828 1.9 1.9 0 0 1 3.77-.342 20.792 20.792 0 0 1 3.545-.5v-3.542a2.93 2.93 0 0 0-2.93-2.93H4.776a2.93 2.93 0 0 0-2.93 2.93v8.77a2.93 2.93 0 0 0 2.93 2.928zm27.402-9.217a1.902 1.902 0 1 1 0 3.804 1.902 1.902 0 0 1 0-3.804zm-10.685-1.027h2.956a2.93 2.93 0 0 1 0 5.86h-2.956a2.93 2.93 0 0 1 0-5.86zm-7.728 1.027a1.902 1.902 0 1 1 0 3.804 1.902 1.902 0 0 1 0-3.804zm-6.506 0a1.902 1.902 0 1 1 0 3.804 1.902 1.902 0 0 1 0-3.804zM21.489 43.123h2.96c.1 0 .2.02.3.03.27-1.54.69-3.02 1.28-4.42H4.779c-1.62 0-2.93 1.31-2.93 2.93v8.77c0 1.62 1.31 2.93 2.93 2.93h20.69c-.46-1.41-.8-2.87-.95-4.39h-3.03c-1.61 0-2.93-1.31-2.93-2.93 0-1.61 1.32-2.92 2.93-2.92zm-14.23 4.83c-1.05 0-1.9-.85-1.9-1.91a1.9 1.9 0 1 1 3.8 0c0 1.06-.85 1.91-1.9 1.91zm6.51 0a1.91 1.91 0 0 1-1.91-1.91c0-1.05.86-1.9 1.91-1.9s1.9.85 1.9 1.9c0 1.06-.85 1.91-1.9 1.91z" opacity="1" data-original="#3d4652" class=""></path><path fill="#2d7abe" d="m49.125 46.812 2.659-2.659a2.723 2.723 0 0 0 0-3.846c-1.025-1.027-2.819-1.027-3.847 0l-2.658 2.659-2.659-2.659a2.7 2.7 0 0 0-1.923-.797h-.002c-.726 0-1.408.283-1.92.797-.515.514-.798 1.197-.798 1.924s.284 1.409.798 1.922l2.657 2.659-2.656 2.658c-.515.514-.799 1.196-.799 1.923s.283 1.41.797 1.923c1.025 1.027 2.82 1.026 3.846.001l2.659-2.659 2.658 2.659a2.698 2.698 0 0 0 1.924.796c.729 0 1.411-.283 1.923-.796a2.723 2.723 0 0 0 0-3.846z" opacity="1" data-original="#2d7abe" class=""></path></g></svg>