<svg xmlns="http://www.w3.org/2000/svg" version="1.1" xmlns:xlink="http://www.w3.org/1999/xlink" width="512" height="512" x="0" y="0" viewBox="0 0 43.349 43.349" style="enable-background:new 0 0 512 512" xml:space="preserve" fill-rule="evenodd" class=""><g><path fill="#fff176" d="M21.675 3.079c.21 0 .38.17.38.38v.385c1.07.027 2.113.167 3.116.408l.1-.37a.38.38 0 1 1 .733.197l-.099.37c1.017.301 1.988.707 2.902 1.206l.194-.335a.38.38 0 0 1 .475-.161 15.595 15.595 0 0 0-7.8-2.08zm-7.803 2.08a15.596 15.596 0 0 1 7.803-2.08.38.38 0 0 0-.38.38v2.795a.38.38 0 0 0 .76 0v-2.41c1.07.027 2.113.167 3.116.408l-.263.98a.38.38 0 0 0 .735.197l.262-.98c1.017.301 1.988.707 2.902 1.206l-.504.875a.38.38 0 1 0 .658.38l.504-.873.194-.336a.38.38 0 0 0-.096-.492 15.793 15.793 0 0 1 3.15 2.419.382.382 0 0 1 .105.105c.932.941 1.746 1.999 2.418 3.15a.396.396 0 0 1 .05.085 15.595 15.595 0 0 1 2.08 7.801 15.658 15.658 0 0 1-2.083 7.808.39.39 0 0 1-.044.076 15.732 15.732 0 0 1-5.63 5.656l1.16 2.007a18.041 18.041 0 0 0 8.915-15.547C39.684 8.84 31.604.76 21.675.76c-9.93 0-18.01 8.08-18.01 18.01a18.042 18.042 0 0 0 8.916 15.547l1.16-2.008a15.704 15.704 0 0 1-5.631-5.657.402.402 0 0 1-.045-.077 15.709 15.709 0 0 1-2.082-7.806c0-2.837.757-5.501 2.08-7.8a.38.38 0 0 1 .05-.087 15.79 15.79 0 0 1 2.42-3.151.376.376 0 0 1 .102-.102 15.79 15.79 0 0 1 3.154-2.421.368.368 0 0 1 .083-.048z" opacity="1" data-original="#fff176"></path><path d="M30.63 35.215a.38.38 0 0 1-.187-.712 18.042 18.042 0 0 0 9.241-15.734c0-9.93-8.08-18.008-18.009-18.008-9.93 0-18.01 8.079-18.01 18.008 0 6.52 3.541 12.55 9.24 15.734a.38.38 0 1 1-.37.663 18.802 18.802 0 0 1-9.63-16.397C2.905 8.42 11.325 0 21.675 0s18.77 8.42 18.77 18.77c0 6.795-3.691 13.078-9.631 16.396a.375.375 0 0 1-.184.049z" fill="#000000" opacity="1" data-original="#000000" class=""></path><path d="M14.26 32.548a.383.383 0 0 1-.184-.047 15.713 15.713 0 0 1-8.093-13.732c0-8.651 7.04-15.69 15.692-15.69 8.652 0 15.69 7.039 15.69 15.69a15.713 15.713 0 0 1-8.091 13.732.38.38 0 0 1-.37-.666 14.95 14.95 0 0 0 7.701-13.066c0-8.232-6.697-14.93-14.93-14.93S6.744 10.537 6.744 18.769a14.95 14.95 0 0 0 7.7 13.066.38.38 0 0 1-.184.713z" fill="#000000" opacity="1" data-original="#000000" class=""></path><path d="M21.675 6.634a.38.38 0 0 1-.38-.38V3.46a.38.38 0 1 1 .76 0v2.795c0 .21-.17.38-.38.38zM9.159 19.15H6.364a.38.38 0 1 1 0-.76h2.795a.38.38 0 0 1 0 .76zM36.986 19.15h-2.794a.38.38 0 1 1 0-.76h2.794a.38.38 0 0 1 0 .76zM21.675 17.246c-.84 0-1.524.684-1.524 1.523 0 .841.683 1.524 1.524 1.524a1.524 1.524 0 0 0 0-3.047zm0 3.808a2.287 2.287 0 0 1-2.284-2.285 2.285 2.285 0 1 1 2.285 2.284zM18.074 5.71a.38.38 0 0 1-.368-.28l-.361-1.351a.38.38 0 0 1 .735-.196l.361 1.35a.38.38 0 0 1-.367.478zM14.72 7.1a.38.38 0 0 1-.33-.19l-.7-1.21a.38.38 0 1 1 .659-.38l.699 1.21a.38.38 0 0 1-.329.57zM11.837 9.312a.38.38 0 0 1-.269-.112l-.988-.987a.38.38 0 0 1 .538-.539l.988.988a.38.38 0 0 1-.27.65zM9.626 12.193a.381.381 0 0 1-.19-.051l-1.21-.698a.38.38 0 1 1 .38-.659l1.21.698a.38.38 0 0 1-.19.71zM8.236 15.55a.375.375 0 0 1-.099-.014l-1.35-.362a.38.38 0 1 1 .197-.734l1.35.362a.38.38 0 0 1-.098.748zM8.415 26.806a.38.38 0 0 1-.19-.71l1.21-.7a.38.38 0 1 1 .38.66l-1.21.698a.381.381 0 0 1-.19.052zM10.848 29.977a.38.38 0 0 1-.268-.65l.988-.988a.38.38 0 0 1 .538.538l-.988.989a.385.385 0 0 1-.27.11zM32.501 29.977a.378.378 0 0 1-.268-.112l-.988-.988a.38.38 0 1 1 .537-.537l.989.987a.38.38 0 0 1-.27.65zM34.934 26.806a.383.383 0 0 1-.19-.052l-1.21-.698a.382.382 0 0 1 .38-.66l1.21.7a.38.38 0 0 1-.19.71zM36.464 23.112a.373.373 0 0 1-.098-.012l-1.35-.362a.38.38 0 1 1 .196-.735l1.35.362a.38.38 0 0 1-.098.747zM35.114 15.55a.38.38 0 0 1-.098-.748l1.35-.362a.38.38 0 1 1 .196.734l-1.35.362a.371.371 0 0 1-.098.013zM33.725 12.193a.38.38 0 0 1-.191-.71l1.21-.698a.38.38 0 1 1 .38.659l-1.21.698a.378.378 0 0 1-.189.051zM31.513 9.312a.38.38 0 0 1-.269-.65l.989-.987a.38.38 0 1 1 .537.538l-.988.987a.38.38 0 0 1-.269.112zM28.631 7.1a.38.38 0 0 1-.329-.57l.699-1.21a.38.38 0 1 1 .658.38l-.698 1.21c-.07.122-.199.19-.33.19zM25.276 5.71a.38.38 0 0 1-.367-.478l.362-1.35a.38.38 0 1 1 .733.197l-.361 1.35a.38.38 0 0 1-.367.281z" fill="#000000" opacity="1" data-original="#000000" class=""></path><path d="M21.675 17.246a.38.38 0 0 1-.38-.38v-8.09a.38.38 0 1 1 .76 0v8.09c0 .21-.17.38-.38.38zM28.41 19.15h-4.832a.38.38 0 1 1 0-.76h4.833a.38.38 0 0 1 0 .76zM6.886 23.112a.38.38 0 0 1-.099-.747l1.35-.362a.38.38 0 0 1 .197.735l-1.35.362a.383.383 0 0 1-.098.012zM21.675 37.962c-.284 0-.533.093-.76.284-.207.175-.308.426-.308.768 0 .343.1.593.308.768.228.192.476.285.76.285.284 0 .532-.093.76-.284.208-.176.309-.426.309-.769 0-.342-.101-.593-.31-.768a1.14 1.14 0 0 0-.759-.284zm0 2.865c-.464 0-.885-.155-1.25-.462-.385-.324-.579-.779-.579-1.35 0-.573.194-1.027.58-1.35a1.89 1.89 0 0 1 1.25-.464c.464 0 .883.155 1.249.463.384.323.579.778.579 1.35 0 .572-.195 1.027-.58 1.35a1.896 1.896 0 0 1-1.249.463zM21.003 35.616h1.38a48 48 0 0 0 .239-2.198c.07-.82.106-1.72.106-2.673v-2.827H20.64v2.827c0 .951.038 1.85.114 2.67.067.721.15 1.46.249 2.2zm1.711.76h-2.043a.38.38 0 0 1-.376-.329c-.12-.86-.22-1.722-.298-2.561a30.009 30.009 0 0 1-.118-2.741v-3.207c0-.211.17-.38.38-.38h2.85c.21 0 .38.169.38.38v3.207c0 .974-.038 1.896-.11 2.739a48.95 48.95 0 0 1-.288 2.563.382.382 0 0 1-.377.33z" fill="#000000" opacity="1" data-original="#000000" class=""></path><path d="M21.675 23.5a3.38 3.38 0 0 0-2.957 1.707L11.64 37.468a3.374 3.374 0 0 0 0 3.414 3.377 3.377 0 0 0 2.955 1.707h14.16a3.38 3.38 0 0 0 2.956-1.707 3.378 3.378 0 0 0 0-3.414l-7.08-12.261a3.379 3.379 0 0 0-2.956-1.707zm7.08 19.85h-14.16a4.13 4.13 0 0 1-3.614-2.088 4.132 4.132 0 0 1 0-4.174l7.08-12.261a4.132 4.132 0 0 1 3.614-2.088c1.51 0 2.86.78 3.614 2.088l7.08 12.261a4.13 4.13 0 0 1 0 4.174 4.131 4.131 0 0 1-3.615 2.087z" fill="#000000" opacity="1" data-original="#000000" class=""></path><path fill="#e0f6ff" d="M18.06 24.826a4.132 4.132 0 0 1 3.615-2.087c1.51 0 2.86.78 3.614 2.087l3.94 6.824a14.94 14.94 0 0 0 2.73-2.058l-.714-.715a.38.38 0 1 1 .537-.537l.715.714c.725-.764 1.366-1.6 1.912-2.493l-.875-.505a.382.382 0 0 1 .38-.66l.875.506c.5-.92.905-1.892 1.204-2.902l-.977-.262a.38.38 0 1 1 .196-.735l.978.262a14.9 14.9 0 0 0 .41-3.115h-2.408a.38.38 0 1 1 0-.76H36.6a14.898 14.898 0 0 0-.409-3.117l-.98.263a.38.38 0 1 1-.196-.735l.98-.262a14.838 14.838 0 0 0-1.207-2.902l-.875.505a.378.378 0 0 1-.519-.139.381.381 0 0 1 .139-.52l.874-.504a15.033 15.033 0 0 0-1.915-2.49l-.71.711a.38.38 0 1 1-.538-.538l.71-.71a15.033 15.033 0 0 0-2.49-1.915l-.504.874a.381.381 0 0 1-.52.138.38.38 0 0 1-.138-.519l.505-.875c-.915-.499-1.886-.905-2.903-1.206l-.262.98a.38.38 0 0 1-.735-.197l.263-.98a14.894 14.894 0 0 0-3.116-.408v2.41a.38.38 0 1 1-.76 0v-2.41c-1.07.027-2.113.167-3.116.408l.262.98a.38.38 0 1 1-.735.197l-.262-.98a14.84 14.84 0 0 0-2.902 1.207l.506.874a.38.38 0 0 1-.659.38l-.505-.873c-.896.55-1.73 1.193-2.49 1.914l.712.711a.38.38 0 1 1-.538.538l-.711-.71a15.03 15.03 0 0 0-1.915 2.49l.873.503a.38.38 0 1 1-.38.659l-.875-.505c-.499.914-.905 1.886-1.206 2.902l.98.263a.38.38 0 0 1-.197.735l-.98-.264a14.885 14.885 0 0 0-.408 3.116h2.41a.38.38 0 0 1 0 .76h-2.41c.027 1.062.166 2.105.41 3.116l.978-.262a.38.38 0 0 1 .197.735L7.356 23a14.95 14.95 0 0 0 1.204 2.902l.875-.505a.38.38 0 1 1 .38.66l-.875.504a14.96 14.96 0 0 0 1.912 2.493l.716-.715a.38.38 0 0 1 .538.538l-.716.716c.82.78 1.733 1.471 2.73 2.057zm1.33-6.057c0-1.13.826-2.07 1.905-2.251V8.776a.38.38 0 1 1 .76 0v7.742c.956.16 1.711.916 1.872 1.871h4.484a.38.38 0 0 1 0 .76h-4.484a2.287 2.287 0 0 1-2.252 1.905 2.287 2.287 0 0 1-2.284-2.285z" opacity="1" data-original="#e0f6ff" class=""></path><path fill="#fff176" d="M20.151 18.77c0 .84.683 1.523 1.524 1.523a1.524 1.524 0 1 0-1.524-1.524z" opacity="1" data-original="#fff176"></path><path fill="#e57373" d="m30.294 35.015-5.663-9.808a3.379 3.379 0 0 0-2.956-1.707 3.38 3.38 0 0 0-2.957 1.707l-4.125 7.145-2.953 5.116a3.374 3.374 0 0 0 0 3.414 3.377 3.377 0 0 0 2.955 1.707h14.16a3.38 3.38 0 0 0 2.956-1.707 3.378 3.378 0 0 0 0-3.413l-1.405-2.434a.374.374 0 0 1-.01-.015c0-.002 0-.003-.002-.005zm-7.203 1.032a.382.382 0 0 1-.377.33H20.67a.38.38 0 0 1-.376-.33c-.12-.86-.22-1.722-.298-2.561a30.012 30.012 0 0 1-.118-2.741v-3.207c0-.211.17-.38.38-.38h2.85c.21 0 .38.169.38.38v3.207c0 .974-.038 1.896-.11 2.739a48.95 48.95 0 0 1-.288 2.564zm-.166 1.618c.384.322.579.777.579 1.35 0 .571-.195 1.026-.58 1.35a1.896 1.896 0 0 1-1.249.462c-.464 0-.885-.155-1.25-.462-.385-.324-.579-.778-.579-1.35 0-.573.194-1.027.58-1.35a1.89 1.89 0 0 1 1.25-.464c.464 0 .883.155 1.249.463z" opacity="1" data-original="#e57373" class=""></path><g fill="#e0e0e0"><path d="M22.622 33.419c.07-.821.106-1.72.106-2.674v-2.827H20.64v2.827c0 .952.038 1.85.114 2.67.067.721.15 1.46.249 2.2h1.38a48.14 48.14 0 0 0 .239-2.196zM22.435 38.246a1.14 1.14 0 0 0-.76-.284c-.284 0-.533.093-.76.284-.207.175-.308.426-.308.768 0 .343.1.593.308.768.228.192.476.285.76.285.284 0 .532-.093.76-.285.208-.175.309-.425.309-.768 0-.342-.101-.593-.31-.768z" fill="#e0e0e0" opacity="1" data-original="#e0e0e0"></path></g></g></svg>