<svg xmlns="http://www.w3.org/2000/svg" version="1.1" xmlns:xlink="http://www.w3.org/1999/xlink" width="512" height="512" x="0" y="0" viewBox="0 0 512 512" style="enable-background:new 0 0 512 512" xml:space="preserve" class=""><g><path d="M501.461 383.799 320.501 51.401C306.7 28.6 282.7 14.8 256 14.8s-50.7 13.8-64.501 36.601L10.539 383.799C-3.259 407.501-3.56 435.701 9.941 459.4c13.499 23.699 37.798 37.8 65.099 37.8h361.92c27.301 0 51.601-14.101 65.099-37.8 13.501-23.699 13.2-51.899-.598-75.601z" style="" fill="#495a79" data-original="#495a79" class=""></path><path d="M502.059 459.4c-13.499 23.699-37.798 37.8-65.099 37.8H256V14.8c26.7 0 50.7 13.801 64.501 36.601L501.461 383.8c13.798 23.701 14.099 51.901.598 75.6z" style="" fill="#42516d" data-original="#42516d" class=""></path><path d="M475.661 399.1 294.699 66.699C286.601 52.9 271.901 44.8 256 44.8s-30.601 8.101-38.699 21.899L36.339 399.1c-8.399 14.101-8.399 31.199-.298 45.3 8.099 14.399 22.798 22.8 39 22.8h361.92c16.201 0 30.901-8.401 39-22.8 8.099-14.101 8.099-31.199-.3-45.3z" style="" fill="#ffde33" data-original="#ffde33" class=""></path><path d="M475.96 444.4c-8.099 14.399-22.798 22.8-39 22.8H256V44.8c15.901 0 30.601 8.101 38.699 21.899L475.661 399.1c8.399 14.101 8.399 31.199.299 45.3z" style="" fill="#ffbc33" data-original="#ffbc33" class=""></path><path d="M256 437.2c-16.538 0-30-13.462-30-30s13.462-30 30-30 30 13.462 30 30-13.462 30-30 30zM286 317.2c0 16.538-13.462 30-30 30s-30-13.462-30-30v-150c0-16.538 13.462-30 30-30s30 13.462 30 30v150z" style="" fill="#495a79" data-original="#495a79" class=""></path><path d="M286 407.2c0-16.538-13.462-30-30-30v60c16.538 0 30-13.462 30-30zM286 317.2v-150c0-16.538-13.462-30-30-30v210c16.538 0 30-13.462 30-30z" style="" fill="#42516d" data-original="#42516d" class=""></path></g></svg>